Coordinates
version=1
nRows=16
nColumns=36
inDegrees=yes

Units are S.I. units (second, meters, Newtons, ...)
If the header above contains a line with 'inDegrees', this indicates whether rotational values are in degrees (yes) or radians (no).

endheader
time	pelvis_tilt	pelvis_list	pelvis_rotation	pelvis_tx	pelvis_ty	pelvis_tz	hip_flexion_r	hip_adduction_r	hip_rotation_r	knee_angle_r	knee_angle_r_beta	ankle_angle_r	subtalar_angle_r	mtp_angle_r	hip_flexion_l	hip_adduction_l	hip_rotation_l	knee_angle_l	knee_angle_l_beta	ankle_angle_l	subtalar_angle_l	mtp_angle_l	lumbar_extension	lumbar_bending	lumbar_rotation	arm_flex_r	arm_add_r	arm_rot_r	elbow_flex_r	pro_sup_r	arm_flex_l	arm_add_l	arm_rot_l	elbow_flex_l	pro_sup_l
      1.47500000	     -4.77873963	     -3.45928395	     -1.04940789	     -0.34767165	      1.06993984	     -0.54324425	     10.73933408	      1.85409696	      1.13828172	     50.89362622	      0.88826135	      9.58381663	     -2.19460710	     -7.49999987	     18.99088349	     -4.19573174	      2.01660032	     12.84823388	      0.22424398	      2.87188011	      9.91812820	     -7.49999987	      0.25398732	     -0.58489020	      4.14067683	    -20.34805704	     -8.40679029	     -6.82952069	     56.25417896	     75.20668795	      2.70637760	    -11.76544910	     11.76834483	     42.43422559	     79.56987914
      1.47916670	     -4.90595498	     -3.58970356	     -1.01966042	     -0.34555161	      1.07040486	     -0.54351621	     11.25345790	      1.90988943	      0.97359365	     50.87825059	      0.88799299	      8.26740183	     -2.01741579	     -7.49999987	     18.95593209	     -4.32926211	      1.83049235	     12.74606203	      0.22246075	      2.87201620	     10.14366686	     -7.49999987	      0.32916198	     -0.49329858	      4.00885096	    -20.54761892	     -8.38796180	     -6.86258620	     57.09981421	     75.01145005	      2.88972608	    -11.94566898	     12.00213855	     43.13080406	     79.52501325
      1.48333330	     -5.04403652	     -3.73222686	     -0.99603734	     -0.34365010	      1.07085881	     -0.54379930	     11.78809897	      1.97451333	      0.79299914	     50.84595564	      0.88742934	      6.97075291	     -1.81532043	     -7.49999987	     18.94657964	     -4.47460225	      1.63602275	     12.64084294	      0.22062433	      2.81639017	     10.33443473	     -7.49999987	      0.42450337	     -0.36829586	      3.84052277	    -20.68525640	     -8.38611781	     -6.83650260	     57.96158039	     74.69047774	      3.05099854	    -12.13388740	     12.13109731	     43.91468305	     79.26308949
      1.48750000	     -5.12166922	     -3.87006303	     -0.97886722	     -0.34182686	      1.07139609	     -0.54403340	     12.23457494	      2.05974552	      0.66417805	     50.75581013	      0.88585600	      5.66149294	     -1.68076056	     -7.49999987	     18.86609231	     -4.62634677	      1.38594339	     12.52553314	      0.21861179	      2.83933211	     10.63441725	     -7.49999987	      0.42614900	     -0.25857640	      3.77530492	    -20.89031462	     -8.37604818	     -6.80169828	     58.94242427	     74.65272946	      3.32003468	    -12.29563963	     12.39533685	     44.63098992	     79.44344339
      1.49166670	     -5.49152914	     -3.97704650	     -0.98865483	     -0.34007245	      1.07147473	     -0.54427001	     13.02404293	      2.10266732	      0.51894391	     50.72242951	      0.88527340	      4.69858543	     -1.32946070	     -7.49999987	     19.10803989	     -4.73708929	      1.23311217	     12.40112383	      0.21644044	      2.70178205	     10.64825955	     -7.49999987	      0.82100675	     -0.18352575	      3.57974745	    -21.01304076	     -8.36076041	     -6.78227913	     59.71061427	     74.09111633	      3.31800005	    -12.50724977	     12.38196699	     45.60279595	     78.78770460
      1.49583330	     -5.29285297	     -4.15747098	     -0.95344804	     -0.33869959	      1.07248625	     -0.54457963	     13.12609981	      2.25458553	      0.41620345	     50.49944077	      0.88138151	      3.48803504	     -1.47595858	     -7.49999987	     18.74924900	     -4.94764825	      0.88871845	     12.27919450	      0.21431237	      2.75284503	     11.14740991	     -7.49999987	      0.44104523	     -0.02576334	      3.49392759	    -21.10591319	     -8.42016569	     -6.68508682	     60.81596212	     74.25588853	      3.76754806	    -12.63944210	     12.70055882	     46.13824535	     79.27345145
      1.50000000	     -5.41576019	     -4.30278240	     -0.95255210	     -0.33741028	      1.07307494	     -0.54492916	     13.61318441	      2.34923793	      0.28434606	     50.34812662	      0.87874058	      2.64854560	     -1.39589029	     -7.49999987	     18.75277148	     -5.10658422	      0.67553726	     12.16476917	      0.21231527	      2.68831938	     11.35028059	     -7.49999987	      0.46683781	      0.11122673	      3.32028196	    -21.14997284	     -8.40687769	     -6.67822263	     61.69663461	     74.06566611	      3.95118734	    -12.79265346	     12.81370275	     46.87348859	     79.21048179
      1.50416670	     -5.57481055	     -4.42578655	     -1.00600869	     -0.33633736	      1.07346570	     -0.54525710	     14.18545166	      2.42668869	      0.19756621	     50.27068641	      0.87738900	      2.04268512	     -1.34527297	     -7.49999987	     18.80486581	     -5.25916125	      0.40963904	     12.05759681	      0.21044476	      2.63390641	     11.57188538	     -7.49999987	      0.51336031	      0.25268422	      3.62388004	    -21.54214209	     -8.14512295	     -7.53308599	     62.88458745	     76.55497600	      4.54159169	    -12.89365093	     13.21414253	     47.30700844	     83.60814766
      1.50833330	     -5.69092335	     -4.55960690	     -1.06331999	     -0.33541211	      1.07398458	     -0.54566394	     14.70083376	      2.51159406	      0.10935825	     50.15331894	      0.87534055	      1.58224292	     -1.40411167	     -7.49999987	     18.80996089	     -5.41421034	      0.19428230	     11.93135726	      0.20824147	      2.54910631	     11.70400481	     -7.49999987	      0.49777465	      0.38420136	      3.38897695	    -21.42854923	     -8.25285113	     -7.27426966	     63.67459491	     76.01043485	      4.65354653	    -12.99591660	     13.02071076	     48.15725717	     82.90280808
      1.51250000	     -6.13303452	     -4.60156575	     -1.20191302	     -0.33447912	      1.07400884	     -0.54594572	     15.64649462	      2.50650627	      0.07117029	     50.18834447	      0.87595186	      1.57624503	     -1.37736172	     -7.49999987	     19.16415685	     -5.47945014	      0.09537080	     11.81697569	      0.20624513	      2.48362271	     11.60894201	     -7.49999987	      0.91997128	      0.37864217	      3.26306654	    -21.43374684	     -8.23484014	     -7.19025442	     64.37597092	     75.24305311	      4.60898286	    -13.15338930	     12.95796979	     49.24914179	     81.93454529
      1.51666670	     -5.85720862	     -4.79801094	     -1.25211014	     -0.33394584	      1.07535851	     -0.54658454	     15.68686514	      2.64145389	     -0.02385521	     49.89098635	      0.87076198	      1.24746159	     -1.75583216	     -7.49999987	     18.77972571	     -5.71245544	     -0.27626676	     11.73624802	      0.20483617	      2.49785005	     12.04731244	     -7.49999987	      0.28278007	      0.67456747	      3.10002426	    -21.22496573	     -8.49653394	     -6.79001477	     65.54966952	     75.01382495	      5.03604657	    -13.24747834	     13.01405973	     49.89609917	     81.71475235
      1.52083330	     -5.95066035	     -4.92940531	     -1.37116461	     -0.33324270	      1.07606182	     -0.54707541	     16.21685807	      2.72299585	     -0.07443979	     49.79635923	      0.86911042	      1.32976710	     -1.95983007	     -7.49999987	     18.77895167	     -5.88123946	     -0.52030023	     11.65018457	      0.20333408	      2.46326596	     12.20146862	     -7.49999987	      0.22050186	      0.84284791	      3.01696804	    -21.15848056	     -8.59461564	     -6.61560400	     66.54134193	     74.67514416	      5.24657919	    -13.35548460	     13.11094120	     50.80426991	     81.41510109
      1.52500000	     -6.33568072	     -4.99349142	     -1.54318475	     -0.33238968	      1.07639187	     -0.54759603	     17.08103592	      2.73051529	     -0.08519968	     49.73804607	      0.86809267	      1.66669776	     -2.10626629	     -7.49999987	     19.08183943	     -5.96663386	     -0.63844263	     11.56771866	      0.20189478	      2.37194592	     12.09489373	     -7.49999987	      0.56470445	      0.95231507	      2.91716935	    -21.05621560	     -8.61803828	     -6.55997489	     67.20921979	     74.03508478	      5.30543286	    -13.45402405	     13.10474536	     51.79155044	     80.61318991
      1.52916670	     -6.12099227	     -5.15233410	     -1.64179356	     -0.33174395	      1.07782289	     -0.54824874	     17.20446444	      2.82502738	     -0.13709107	     49.46298751	      0.86329199	      1.81334420	     -2.54083379	     -7.49999987	     18.74541106	     -6.15019059	     -0.85631551	     11.50474273	      0.20079564	      2.47290473	     12.36758268	     -7.49999987	      0.03367126	      1.17111739	      2.85343764	    -20.89597022	     -8.82053831	     -6.32421836	     68.43153880	     73.87716116	      5.73563962	    -13.50170751	     13.27492352	     52.50487679	     80.57688031
      1.53333330	     -6.15419786	     -5.26509026	     -1.79230567	     -0.33088938	      1.07889182	     -0.54883507	     17.61024388	      2.87664734	     -0.14817782	     49.22931213	      0.85921359	      2.17347600	     -2.87968694	     -7.49999987	     18.65605845	     -6.28636840	     -1.02115571	     11.43334969	      0.19954960	      2.49810290	     12.46139824	     -7.49999987	     -0.14378058	      1.35508624	      2.85387010	    -20.83381824	     -8.91353036	     -6.26464689	     69.51578238	     73.72620880	      6.02799668	    -13.56407084	     13.44388520	     53.39503954	     80.61932700
      1.53750000	     -6.18828163	     -5.37751784	     -1.93010474	     -0.32994911	      1.07994039	     -0.54945560	     17.97777770	      2.92173548	     -0.16872913	     48.92327949	      0.85387231	      2.54592602	     -3.23382106	     -7.49999987	     18.56129569	     -6.40698187	     -1.10425114	     11.36799159	      0.19840888	      2.54588539	     12.48812355	     -7.49999987	     -0.29525364	      1.53051585	      2.82787738	    -20.71699816	     -9.00634282	     -6.25153380	     70.54966827	     73.59567828	      6.32503698	    -13.59411316	     13.56827890	     54.27488285	     80.67561334
